<?xml version="1.0" encoding="UTF-8"?><svg id="OBJECTS" xmlns="http://www.w3.org/2000/svg" width="859.847656581140654" height="182.13623046875" viewBox="0 0 859.847656581140654 182.13623046875"><path d="m54.772270533777373,33.841911315917969h28.838798522949219c1.125900268554688,0,2.243301391601562.047199249267578,3.348396301269531.138801574707031,2.648399353027344.219398498535156,5.193206787109375-1.061100006103516,6.518096923828125-3.364799499511719h.000106811523438c2.470893859863281-4.296199798583984-.349906921386719-9.724599838256836-5.288505554199219-10.141300201416016-1.509597778320312-.127300262451172-3.036491394042969-.192399978637695-4.578102111816406-.192399978637695h-28.640701293945312C25.052271220422881,20.28221321105957-.206325199865205,44.758514404296875.001270625330108,74.675910949707031c.102404579520226,14.762001037597656,6.133999824523926,28.117897033691406,15.822199821472168,37.805999755859375,9.771698951721191,9.771797180175781,23.274598121643066,15.812202453613281,38.18809986114502,15.812202453613281h29.599498748779297c1.541603088378906,0,3.068496704101562-.065109252929688,4.578102111816406-.192398071289062,4.9385986328125-.416702270507812,7.7593994140625-5.845001220703125,5.288505554199219-10.14129638671875h-.000106811523438c-1.32489013671875-2.303703308105469-3.869598388671875-3.584098815917969-6.517997741699219-3.364799499511719-1.1051025390625.091499328613281-2.222496032714844.138702392578125-3.348503112792969.138702392578125h-29.599498748779297c-22.636299133300781,0-40.985599517822266-18.682701110839844-40.439998626708984-41.428504943847656.529500007629395-22.078697204589844,19.115699768066406-39.463901519775391,41.200698852539062-39.463905334472656Z" style="fill:#30325e; stroke-width:0px;"/><path d="m15.594770762659209,102.923912048339844l-9.749799728393555,24.917503356933594c-1.567600250244141,4.006301879882812,2.621705055236816,7.840194702148438,6.473705291748047,5.924606323242188l27.327793121337891-13.590499877929688s-24.051698684692383-17.251602172851562-24.051698684692383-17.251609802246094Z" style="fill:#30325e; stroke-width:0px;"/><path d="m105.867676112390654,52.113311767578125c-1.695205688476562-1.701900482177734-3.602706909179688-3.215499877929688-5.668907165527344-4.499099731445312-1.340896606445312-.83599853515625-2.925003051757812-1.083198547363281-4.464797973632812-.697097778320312-1.545196533203125.388198852539062-2.834999084472656,1.364200592041016-3.632598876953125,2.75-.500999450683594.881000518798828-.766502380371094,1.870800018310547-.766502380371094,2.861701965332031,0,2.031898498535156,1.041999816894531,3.898700714111328,2.789398193359375,4.993000030517578,5.834503173828125,3.643199920654297,9.31829833984375,9.912601470947266,9.31829833984375,16.770694732666016,0,6.855400085449219-3.484893798828125,13.123703002929688-9.321601867675781,16.767501831054688-2.691703796386719,1.6875-3.575996398925781,5.140701293945312-2.01300048828125,7.864097595214844,1.038703918457031,1.796302795410156,2.973899841308594,2.912200927734375,5.049102783203125,2.912200927734375,1.074302673339844,0,2.124099731445312-.298301696777344,3.032798767089844-.862602233886719,9.304901123046875-5.768402099609375,14.859397888183594-15.742599487304688,14.859397888183594-26.681198120117188,0-8.381698608398438-3.260498046875-16.258598327636719-9.181587219238281-22.17919921875Z" style="fill:#00c3ad; stroke-width:0px;"/><path d="m87.650673243738311,82.367607116699219c-4.462203979492188,0-8.079505920410156-3.617301940917969-8.079505920410156-8.079399108886719,0-4.462203979492188,3.617301940917969-8.079498291015625,8.079505920410156-8.079498291015625,4.462089538574219,0,8.079391479492188,3.617301940917969,8.079391479492188,8.079498291015625,0,4.46209716796875-3.617301940917969,8.079399108886719-8.079391479492188,8.079399108886719Z" style="fill:#ff7859; stroke-width:0px;"/><path d="m137.611374232507842,74.295707702636719c0,19.406898498535156-10.226799011230469,36.413597106933594-25.583900451660156,45.935005187988281-1.103401184082031.682601928710938-2.320602416992188,1.0010986328125-3.526397705078125,1.0010986328125-2.35479736328125,0-4.652702331542969-1.228599548339844-5.915390014648438-3.412696838378906-1.842910766601562-3.208000183105469-.739410400390625-7.246299743652344,2.400192260742188-9.214302062988281,11.444000244140625-7.143997192382812,19.065696716308594-19.850601196289062,19.065696716308594-34.309097290039062,0-14.458400726318359-7.621696472167969-27.176399230957031-19.065696716308594-34.320301055908203-2.104400634765625-1.319599151611328-3.298896789550781-3.572002410888672-3.298896789550781-5.881198883056641,0-1.126197814941406.295799255371094-2.275199890136719.898704528808594-3.333099365234375,1.911094665527344-3.321701049804688,6.199691772460938-4.425100326538086,9.453193664550781-2.400299072265625,3.549201965332031,2.206899642944336,6.825401306152344,4.80059814453125,9.760299682617188,7.746799468994141,9.771697998046875,9.771701812744141,15.81219482421875,23.274700164794922,15.81219482421875,38.188091278076172Z" style="fill:#ff4653; stroke-width:0px;"/><g style="isolation:isolate;"><g style="isolation:isolate;"><path d="m180.521484706140654,121.23193359375V46.0380859375h-22.22607421875v-22.947265625h69.564453125v22.947265625h-22.08154296875v75.19384765625h-25.2568359375Z" style="fill:#ff4653; stroke-width:0px;"/></g><g style="isolation:isolate;"><path d="m266.826660487390654,123.54052734375c-5.58154296875,0-10.77685546875-.98828125-15.5869140625-2.958984375-4.8125-1.970703125-8.998046875-4.76171875-12.556640625-8.37109375-3.560546875-3.607421875-6.32763671875-7.814453125-8.29833984375-12.626953125-1.97314453125-4.810546875-2.95849609375-10.05419921875-2.95849609375-15.73193359375,0-5.67578125.9853515625-10.9189453125,2.95849609375-15.7314453125,1.970703125-4.8095703125,4.73779296875-8.9951171875,8.29833984375-12.556640625,3.55859375-3.5576171875,7.744140625-6.3251953125,12.556640625-8.2978515625,4.81005859375-1.9716796875,10.00537109375-2.958984375,15.5869140625-2.958984375,5.67578125,0,10.896484375.9873046875,15.6591796875,2.958984375,4.7626953125,1.97265625,8.92333984375,4.740234375,12.48388671875,8.2978515625,3.55859375,3.5615234375,6.32568359375,7.7470703125,8.298828125,12.556640625,1.970703125,4.8125,2.95849609375,10.0556640625,2.95849609375,15.7314453125,0,5.677734375-.98779296875,10.92138671875-2.95849609375,15.73193359375-1.97314453125,4.8125-4.740234375,9.01953125-8.298828125,12.626953125-3.560546875,3.609375-7.72119140625,6.400390625-12.48388671875,8.37109375s-9.9833984375,2.958984375-15.6591796875,2.958984375Zm0-21.50390625c4.712890625,0,8.490234375-1.70703125,11.32958984375-5.123046875,2.83642578125-3.4140625,4.25732421875-7.76904296875,4.25732421875-13.06201171875,0-5.3876953125-1.4208984375-9.7421875-4.25732421875-13.0615234375-2.83935546875-3.3193359375-6.61669921875-4.9794921875-11.32958984375-4.9794921875-4.71533203125,0-8.49267578125,1.66015625-11.32958984375,4.9794921875-2.8388671875,3.3193359375-4.25732421875,7.673828125-4.25732421875,13.0615234375,0,5.29296875,1.41845703125,9.64794921875,4.25732421875,13.06201171875,2.8369140625,3.416015625,6.6142578125,5.123046875,11.32958984375,5.123046875Z" style="fill:#ff4653; stroke-width:0px;"/><path d="m341.874023768640654,144.32373046875h-23.8134765625V46.6162109375h23.8134765625v4.1845703125c2.40380859375-1.9228515625,5.14599609375-3.4384765625,8.2265625-4.5458984375,3.0771484375-1.1044921875,6.3505859375-1.6591796875,9.8134765625-1.6591796875,4.810546875,0,9.380859375.9375,13.7109375,2.8134765625,4.330078125,1.876953125,8.154296875,4.546875,11.474609375,8.0107421875,3.318359375,3.4638671875,5.916015625,7.6015625,7.79296875,12.4111328125,1.876953125,4.8125,2.814453125,10.15234375,2.814453125,16.0205078125,0,5.7724609375-.9375,11.06591796875-2.814453125,15.87646484375s-4.474609375,8.97265625-7.79296875,12.482421875c-3.3203125,3.513671875-7.14453125,6.232421875-11.474609375,8.154296875-4.330078125,1.923828125-8.947265625,2.88671875-13.85546875,2.88671875-3.462890625,0-6.7109375-.5546875-9.7412109375-1.66015625-3.03076171875-1.103515625-5.75048828125-2.669921875-8.154296875-4.689453125v27.421875Zm14.7216796875-42.142578125c4.712890625,0,8.44140625-1.66015625,11.18359375-4.98046875,2.7421875-3.318359375,4.11328125-7.76806640625,4.11328125-13.34912109375,0-5.5791015625-1.37109375-10.005859375-4.11328125-13.2783203125-2.7421875-3.26953125-6.470703125-4.90625-11.18359375-4.90625-4.619140625,0-8.32421875,1.6591796875-11.11376953125,4.978515625-2.79150390625,3.3193359375-4.185546875,7.7216796875-4.185546875,13.2060546875s1.39404296875,9.91162109375,4.185546875,13.27685546875c2.78955078125,3.369140625,6.49462890625,5.052734375,11.11376953125,5.052734375Z" style="fill:#ff4653; stroke-width:0px;"/><path d="m420.241211268640654,38.1005859375c-2.7919921875,0-5.3173828125-.671875-7.5771484375-2.0205078125-2.26171875-1.3466796875-4.06640625-3.125-5.412109375-5.33984375-1.3486328125-2.2119140625-2.0205078125-4.666015625-2.0205078125-7.3603515625,0-2.6923828125.671875-5.1240234375,2.0205078125-7.2890625,1.345703125-2.1640625,3.150390625-3.9189453125,5.412109375-5.267578125,2.259765625-1.345703125,4.78515625-2.0205078125,7.5771484375-2.0205078125,2.6923828125,0,5.1708984375.6748046875,7.4326171875,2.0205078125,2.259765625,1.3486328125,4.0634765625,3.103515625,5.412109375,5.267578125,1.345703125,2.1650390625,2.0205078125,4.5966796875,2.0205078125,7.2890625,0,2.6943359375-.6748046875,5.1484375-2.0205078125,7.3603515625-1.3486328125,2.21484375-3.15234375,3.9931640625-5.412109375,5.33984375-2.26171875,1.3486328125-4.740234375,2.0205078125-7.4326171875,2.0205078125Zm-11.9794921875,83.13134765625V46.6162109375h23.8134765625v74.61572265625h-23.8134765625Z" style="fill:#ff4653; stroke-width:0px;"/><path d="m444.629883143640654,83.8515625c0-7.310546875,1.4912109375-13.7333984375,4.474609375-19.267578125,2.98046875-5.53125,7.119140625-9.98046875,12.4111328125-13.349609375,5.291015625-3.3671875,11.44921875-5.412109375,18.4736328125-6.1337890625,7.0224609375-.7216796875,14.52734375.1220703125,22.5146484375,2.525390625v22.2255859375c-5.5810546875-2.6923828125-10.9208984375-3.943359375-16.01953125-3.751953125-5.1015625.1943359375-9.2861328125,1.7568359375-12.556640625,4.6904296875-3.271484375,2.9365234375-4.9072265625,7.2880859375-4.9072265625,13.0615234375,0,5.7724609375,1.6357421875,10.12646484375,4.9072265625,13.06201171875,3.2705078125,2.935546875,7.455078125,4.47265625,12.556640625,4.6171875,5.0986328125.14453125,10.4384765625-1.08203125,16.01953125-3.6796875v22.2265625c-7.9873046875,2.40234375-15.4921875,3.24609375-22.5146484375,2.525390625-7.0244140625-.72265625-13.1826171875-2.765625-18.4736328125-6.134765625-5.2919921875-3.3671875-9.4306640625-7.81640625-12.4111328125-13.349609375-2.9833984375-5.53125-4.474609375-11.95361328125-4.474609375-19.26708984375Z" style="fill:#ff4653; stroke-width:0px;"/></g><g style="isolation:isolate;"><path d="m535.987305018640654,121.23193359375V46.0380859375h-22.2255859375v-22.947265625h69.564453125v22.947265625h-22.08203125v75.19384765625h-25.2568359375Z" style="fill:#30325e; stroke-width:0px;"/></g><g style="isolation:isolate;"><path d="m636.724609706140654,121.23193359375v-4.330078125c-2.40625,2.01953125-5.123046875,3.5859375-8.154296875,4.689453125-3.03125,1.10546875-6.27734375,1.66015625-9.7421875,1.66015625-4.90625,0-9.525390625-.9375-13.8544921875-2.814453125-4.330078125-1.875-8.154296875-4.568359375-11.4736328125-8.08203125-3.3203125-3.509765625-5.91796875-7.671875-7.7939453125-12.484375-1.8759765625-4.80859375-2.8134765625-10.14892578125-2.8134765625-16.01904296875,0-5.96484375.9375-11.3525390625,2.8134765625-16.1640625,1.8759765625-4.810546875,4.4736328125-8.923828125,7.7939453125-12.33984375,3.3193359375-3.4140625,7.1435546875-6.0615234375,11.4736328125-7.9384765625,4.3291015625-1.8759765625,8.8984375-2.8134765625,13.7099609375-2.8134765625,3.46484375,0,6.734375.5546875,9.814453125,1.6591796875,3.078125,1.107421875,5.8203125,2.623046875,8.2265625,4.5458984375v-4.1845703125h23.8134765625v74.61572265625h-23.8134765625Zm-14.720703125-19.05078125c4.6181640625,0,8.3203125-1.68359375,11.11328125-5.052734375,2.7890625-3.365234375,4.185546875-7.79248046875,4.185546875-13.27685546875s-1.396484375-9.88671875-4.185546875-13.2060546875c-2.79296875-3.3193359375-6.4951171875-4.978515625-11.11328125-4.978515625-4.71484375,0-8.443359375,1.63671875-11.185546875,4.90625-2.7421875,3.2724609375-4.11328125,7.69921875-4.11328125,13.2783203125,0,5.5810546875,1.37109375,10.03076171875,4.11328125,13.34912109375,2.7421875,3.3203125,6.470703125,4.98046875,11.185546875,4.98046875Z" style="fill:#30325e; stroke-width:0px;"/><path d="m677.134765956140654,121.23193359375V15.875h23.814453125v105.35693359375h-23.814453125Z" style="fill:#30325e; stroke-width:0px;"/></g><g style="isolation:isolate;"><path d="m718.265625331140654,121.23193359375V15.875h23.814453125v57.4404296875c3.462890625-4.423828125,6.9267578125-8.8759765625,10.390625-13.349609375s6.927734375-8.9228515625,10.3916015625-13.349609375h27.8544921875c-4.5234375,5.677734375-9.1171875,11.4013671875-13.783203125,17.173828125-4.66796875,5.7734375-9.26171875,11.4990234375-13.783203125,17.1748046875,4.810546875,6.638671875,9.6455078125,13.35107421875,14.5048828125,20.13427734375,4.857421875,6.783203125,9.6455078125,13.494140625,14.3603515625,20.1328125h-28.287109375c-3.560546875-5.099609375-7.169921875-10.26953125-10.82421875-15.515625-3.658203125-5.2421875-7.2666015625-10.4140625-10.82421875-15.51416015625v31.02978515625h-23.814453125Z" style="fill:#30325e; stroke-width:0px;"/></g><g style="isolation:isolate;"><path d="m856.240234706140654,98.14013671875c0,5.966796875-1.6591796875,10.84765625-4.978515625,14.6484375-3.3193359375,3.802734375-7.771484375,6.56640625-13.349609375,8.298828125-5.58203125,1.732421875-11.8125,2.4765625-18.6904296875,2.236328125-6.8798828125-.240234375-13.8798828125-1.37109375-20.9990234375-3.390625v-22.515625c4.041015625,1.830078125,8.08203125,3.248046875,12.123046875,4.2578125s7.697265625,1.61328125,10.96875,1.8046875c3.26953125.193359375,5.9169921875-.072265625,7.9375-.794921875,2.021484375-.720703125,3.03125-1.947265625,3.03125-3.6796875,0-1.345703125-.84375-2.404296875-2.525390625-3.17578125-1.685546875-.767578125-3.875-1.46484375-6.5673828125-2.091796875-2.6943359375-.625-5.5556640625-1.39453125-8.5869140625-2.30908203125-3.03125-.9130859375-5.89453125-2.212890625-8.587890625-3.8974609375-2.6943359375-1.681640625-4.884765625-3.943359375-6.56640625-6.783203125-1.6845703125-2.8369140625-2.525390625-6.5166015625-2.525390625-11.0400390625,0-5.3876953125,1.5625-9.9814453125,4.6904296875-13.783203125,3.1259765625-3.7998046875,7.3349609375-6.6865234375,12.6279296875-8.6591796875,5.291015625-1.9716796875,11.2080078125-2.958984375,17.751953125-2.958984375,6.5419921875,0,13.228515625,1.107421875,20.0615234375,3.3193359375v22.5146484375c-5.3896484375-2.59765625-10.44140625-4.330078125-15.154296875-5.1953125-4.7158203125-.8662109375-8.5146484375-.9853515625-11.4013671875-.361328125-2.88671875.626953125-4.330078125,1.9482421875-4.330078125,3.96875,0,1.3486328125.841796875,2.3818359375,2.525390625,3.103515625,1.6826171875.7216796875,3.84765625,1.37109375,6.4951171875,1.9482421875,2.6455078125.5771484375,5.484375,1.3486328125,8.5146484375,2.3095703125,3.03125.962890625,5.8681640625,2.2861328125,8.515625,3.96875,2.64453125,1.6845703125,4.810546875,3.9931640625,6.494140625,6.927734375,1.6826171875,2.935546875,2.525390625,6.71044921875,2.525390625,11.32958984375Z" style="fill:#30325e; stroke-width:0px;"/></g></g></svg>