<?xml version="1.0" encoding="UTF-8"?><svg id="OBJECTS" xmlns="http://www.w3.org/2000/svg" width="859.847799301162013" height="182.13623046875" viewBox="0 0 859.847799301162013 182.13623046875"><path d="m54.772270202576692,33.842397831836024h28.838798522949219c1.125900268554688,0,2.243301391601562.047200202941895,3.348396301269531.138799667358398,2.648399353027344.219400405883789,5.193206787109375-1.061100006103516,6.518096923828125-3.364799499511719h.000106811523438c2.470893859863281-4.296199798583984-.349906921386719-9.724599838256836-5.288505554199219-10.141300201416016-1.509597778320312-.12729999423027-3.036491394042969-.192399993538857-4.578102111816406-.192399993538857h-28.640701293945312c-29.918088912963867.000000014901161-55.176684603095055,24.476299300789833-54.969089181744494,54.393699660898164.102404581033625,14.762001037597656,6.133999975048937,28.117897033691406,15.822199495160021,37.805999755859375,9.771698951721191,9.771797180175781,23.274598121643066,15.812202453613281,38.18809986114502,15.812202453613281h29.599498748779297c1.541603088378906,0,3.068496704101562-.065101623535156,4.578102111816406-.192398071289062,4.9385986328125-.416702270507812,7.7593994140625-5.845001220703125,5.288505554199219-10.14129638671875h-.000106811523438c-1.32489013671875-2.303703308105469-3.869598388671875-3.584098815917969-6.517997741699219-3.364799499511719-1.1051025390625.091499328613281-2.222496032714844.138702392578125-3.348503112792969.138702392578125h-29.599498748779297c-22.636299133300781,0-40.985599517822266-18.682701110839844-40.439998626708984-41.428501129150391.529500007629395-22.078699111939386,19.115699768066406-39.4639015197763,41.200698852539062-39.463909149170831Z" style="fill:#30325e; stroke-width:0px;"/><path d="m15.594770431458528,102.924398564258809l-9.749799728393555,24.917503356933594c-1.567600250244141,4.006301879882812,2.621705055236816,7.840202331542969,6.473705291748047,5.924598693847656l27.327793121337891-13.590499877929688-24.051698684692383-17.251602172851562Z" style="fill:#30325e; stroke-width:0px;"/><path d="m105.867675781189973,52.11379828349618c-1.695205688476562-1.701900482177734-3.602706909179688-3.215499877929688-5.668907165527344-4.499099731445312-1.340896606445312-.836000442504883-2.925003051757812-1.083200454711914-4.464797973632812-.697099685668945-1.545196533203125.388200759887695-2.834999084472656,1.364200592041016-3.632598876953125,2.75-.500999450683594.881000518798828-.766502380371094,1.870800018310547-.766502380371094,2.861700057983398,0,2.031898498535156,1.041999816894531,3.898700714111328,2.789398193359375,4.993000030517578,5.834503173828125,3.643199920654297,9.31829833984375,9.912597656249091,9.31829833984375,16.770698547364191,0,6.855400085449219-3.484893798828125,13.123703002929688-9.321601867675781,16.767501831054688-2.691703796386719,1.6875-3.575996398925781,5.140701293945312-2.01300048828125,7.864097595214844,1.038703918457031,1.796302795410156,2.973899841308594,2.912200927734375,5.049102783203125,2.912200927734375,1.074302673339844,0,2.124099731445312-.298301696777344,3.032798767089844-.862602233886719,9.304901123046875-5.768402099609375,14.859397888183594-15.742599487304688,14.859397888183594-26.681198120117188,0-8.381698608400256-3.260498046875-16.258598327637628-9.181587219238281-22.179199218750909Z" style="fill:#00c3ad; stroke-width:0px;"/><path d="m87.65067291253763,82.368097447315449c-4.462203979492188,0-8.079505920410156-3.617298126220703-8.079505920410156-8.079399108886719,0-4.462200164794922,3.617301940917969-8.07950210571471,8.079505920410156-8.07950210571471,4.462089538574219,0,8.079391479492188,3.617301940919788,8.079391479492188,8.079498291017444,0,4.462100982666016-3.617301940917969,8.079399108886719-8.079391479492188,8.079402923583984Z" style="fill:#ff7859; stroke-width:0px;"/><path d="m137.611373901307161,74.296198033252949c0,19.406902313232422-10.226799011230469,36.413600921630859-25.583900451660156,45.935001373291016-1.103401184082031.682601928710938-2.320602416992188,1.0010986328125-3.526397705078125,1.0010986328125-2.35479736328125,0-4.652702331542969-1.228599548339844-5.915390014648438-3.412696838378906-1.842910766601562-3.208000183105469-.739410400390625-7.246299743652344,2.400192260742188-9.214302062988281,11.444000244140625-7.143997192382812,19.065696716308594-19.850601196289062,19.065696716308594-34.309101104736328,0-14.458400726319269-7.621696472167969-27.176399230957941-19.065696716308594-34.320301055909113-2.104400634765625-1.319599151611328-3.298896789550781-3.572000503540039-3.298896789550781-5.881199836730957,0-1.126199722290039.295799255371094-2.275199890136719.898704528808594-3.333100318908691,1.911094665527344-3.321700096130371,6.199691772460938-4.425099849700928,9.453193664550781-2.400300025939941,3.549201965332031,2.206899642944336,6.825401306152344,4.800600051879883,9.760299682617188,7.746800422668457,9.771697998046875,9.771699905395508,15.81219482421875,23.274698257446289,15.81219482421875,38.188100814820245Z" style="fill:#ff4653; stroke-width:0px;"/><text transform="translate(153.965815067305812 121.23192310333252)" style="font-family:TiltWarp-Regular, &apos;Tilt Warp&apos;; font-size:144.324264526367188px; font-variation-settings:&apos;XROT&apos; 0, &apos;YROT&apos; 0;"><tspan x="0" y="0" style="fill:#ff4653; letter-spacing:-.059998086364182em;">T</tspan><tspan x="69.5634765625" y="0" style="fill:#ff4653; letter-spacing:.000006766447092em;">opic</tspan><tspan x="355.4658203125" y="0" style="fill:#30325e; letter-spacing:-.059998086364182em;">T</tspan><tspan x="425.029296875" y="0" style="fill:#30325e;">al</tspan><tspan x="555.640625" y="0" style="fill:#30325e; letter-spacing:-.004993637953848em;">k</tspan><tspan x="637.3291015625" y="0" style="fill:#30325e;">s</tspan></text></svg>