<?xml version="1.0" encoding="UTF-8"?><svg id="OBJECTS" xmlns="http://www.w3.org/2000/svg" width="137.611367144178075" height="113.99200916859354" viewBox="0 0 137.611367144178075 113.99200916859354"><path d="m54.772269236869761,13.559699999999793h28.838799271470634c1.125899971557374,0,2.243299943329475.047199999999975,3.348399915412301.138800000000629,2.648399933095789.219399999999951,5.193206774134524-1.061100000000806,6.518099835338944-3.364800000000287h.000106938796307c2.470892998780982-4.296199999999772-.349906929959616-9.724600000000464-5.288506805200086-10.141300000000228-1.509599961864296-.127300000000105-3.036493194800642-.192399999999907-4.578099884347466-.192399999999907h-28.640699276475061C25.052269987660111,0-.206324802112249,24.476300000000265.0012706205016,54.393699999999626c.102404577385641,14.762000000000626,6.133999845042126,28.117900000000191,15.822199600297608,37.806000000000495,9.771699753146095,9.771800000000439,23.274599412034149,15.812200000000303,38.188099035287451,15.812200000000303h29.599499252253736c1.541606689546825,0,3.06849992248317-.065099999999802,4.578099884347466-.192399999999907,4.93859987524047-.416699999999764,7.759399803981069-5.845000000001164,5.288506805200086-10.141300000000228h-.000106938796307c-1.324893061204421-2.30370000000039-3.869599902245682-3.584100000000035-6.51799983534147-3.364800000000287-1.105099972082826.091500000000451-2.222499943854928.138700000000426-3.348499915409775.138700000000426h-29.599499252253736c-22.636299428158964,0-40.985598964616656-18.682700000000295-40.439998978399672-41.428499999999985.529499986623705-22.078700000000026,19.1156995170968-39.463900000000649,41.200698959182773-39.463900000000649Z" style="fill:#30325e; stroke-width:0px;"/><path d="m15.594770226576657,82.641700000000128l-9.749799753699335,24.917500000000473c-1.567599960399093,4.006299999999101,2.621704725010204,7.840199999998731,6.473704725010066,5.924600000000282l27.327794421092221-13.590500000001157-24.051699392402952-17.251599999999598Z" style="fill:#30325e; stroke-width:0px;"/><path d="m105.867675197887365,31.831100000000333c-1.695207208971624-1.701900000000023-3.602707160784121-3.215500000000247-5.668907108587518-4.499099999999999-1.340899966126017-.83600000000024-2.924999926108285-1.083200000000033-4.464799887209665-.697100000000319-1.545199960964965.388200000000325-2.834999928381876,1.364199999999983-3.632599908232805,2.75-.500999987343675.881000000000313-.766499980636581,1.87079999999969-.766499980636581,2.861700000000383,0,2.031899999999951,1.041999973676866,3.898699999999735,2.789399929533829,4.992999999999483,5.834499852608133,3.643200000000434,9.318299764599942,9.912600000000566,9.318299764599942,16.770700000000033,0,6.855400000000373-3.484892809467055,13.123700000000099-9.321599764516577,16.767499999999927-2.691699932001939,1.6875-3.575999909662642,5.140699999999924-2.012999949147343,7.86409999999978,1.03870690419717,1.796299999999974,2.973899924872967,2.912200000000666,5.049099872449005,2.912200000000666,1.074299972860899,0,2.124099946340721-.298300000000381,3.032799923385028-.862600000000384,9.304899764938455-5.768399999999929,14.859399624619982-15.742599999999584,14.859399624619982-26.68119999999999,0-8.38169999999991-3.260499917632842-16.258600000000115-9.181592516257297-22.179199999999582Z" style="fill:#00c3ad; stroke-width:0px;"/><path d="m87.650675197886812,62.085399999999936c-4.462206678870643,0-8.079506587489959-3.617299999999886-8.079506587489959-8.079399999999623,0-4.462199999999939,3.617299908619316-8.079499999999825,8.079506587489959-8.079499999999825,4.462093095682576,0,8.079393004301892,3.617299999999886,8.079393004301892,8.079499999999825,0,4.462099999999737-3.617299908619316,8.079399999999623-8.079393004301892,8.079399999999623Z" style="fill:#ff7859; stroke-width:0px;"/><path d="m137.611367144178075,54.013500000000022c0,19.406899999999951-10.226799741649302,36.41359999999986-25.583899353696324,45.9350000000004-1.103399972125771.682599999999184-2.320599941376713,1.001100000000406-3.526399910915643,1.001100000000406-2.354799940512748,0-4.652699882462912-1.22860000000037-5.915392681677986-3.412700000000768-1.842907122330871-3.207999999999629-.739407150207626-7.246299999999792,2.400192770479407-9.214299999999639,11.443999710900243-7.144000000000233,19.065699518359907-19.850600000000668,19.065699518359907-34.309100000000399,0-14.458400000000438-7.621699807459663-27.176400000000285-19.065699518359907-34.320300000000316-2.104399946838384-1.319599999999809-3.298899916662776-3.572000000000116-3.298899916662776-5.881199999999808,0-1.126199999999699.295799992527463-2.275200000000041.898707146183369-3.333099999999831,1.911092782835112-3.321700000000419,6.199692674495964-4.425100000000384,9.453192592305641-2.400300000000243,3.549199910339667,2.206900000000132,6.825399827575893,4.800600000000486,9.760299753434083,7.746799999999894,9.771699753146095,9.771700000000237,15.81219960055023,23.274699999999939,15.81219960055023,38.188100000000304Z" style="fill:#ff4653; stroke-width:0px;"/></svg>