<?xml version="1.0" encoding="UTF-8"?><svg id="Layer_1" xmlns="http://www.w3.org/2000/svg" width="74.741421024338706" height="89.499992370605469" viewBox="0 0 74.741421024338706 89.499992370605469"><path d="m36.799999237060547,43.099998474121094c5.900001525878906,0,11.100002288818359-2.099998474121094,15.200000762939453-6.299999237060547s6.299999237060547-9.299999237060547,6.299999237060547-15.200000762939453c0-5.899999618530273-2.099998474121094-11.100000381469727-6.299999237060547-15.199999809265137S42.799999237060547,0,36.799999237060547,0c-5.899999618530273,0-11.100000381469727,2.099999904632568-15.299999237060547,6.300000190734863-4.19999885559082,4.199999809265137-6.300000190734863,9.300000190734863-6.300000190734863,15.199999809265137s2.09999942779541,11.099998474121094,6.300000190734863,15.200000762939453c4.299999237060547,4.299999237060547,9.399999618530273,6.399997711181641,15.299999237060547,6.399997711181641Z" style="fill:#b8babd; stroke-width:0px;"/><path d="m74.599998474121094,68.900001525878906c-.099998474121094-1.800003051757812-.400001525878906-3.699996948242188-.699996948242188-5.700000762939453-.400001525878906-2-.800003051757812-3.900001525878906-1.400001525878906-5.700000762939453s-1.400001525878906-3.599998474121094-2.300003051757812-5.299999237060547c-1-1.799999237060547-2.199996948242188-3.299999237060547-3.5-4.599998474121094-1.400001525878906-1.299999237060547-3.099998474121094-2.400001525878906-5.099998474121094-3.200000762939453s-4.099998474121094-1.200000762939453-6.5-1.200000762939453c-.900001525878906,0-1.799999237060547.400001525878906-3.5,1.5-1.099998474121094.700000762939453-2.299999237060547,1.5-3.700000762939453,2.299999237060547-1.200000762939453.799999237060547-2.799999237060547,1.5-4.700000762939453,2.099998474121094s-3.900001525878906.900001525878906-5.799999237060547.900001525878906-3.900001525878906-.299999237060547-5.799999237060547-.900001525878906c-2-.599998474121094-3.5-1.299999237060547-4.700000762939453-2.099998474121094-1.399999618530273-.900001525878906-2.600000381469727-1.700000762939453-3.700000762939453-2.400001525878906-1.700000762939453-1.099998474121094-2.600000381469727-1.5-3.5-1.5-2.299999237060547,0-4.5.400001525878906-6.5,1.200000762939453s-3.699999809265137,1.799999237060547-5.100000381469727,3.200000762939453c-1.300000190734863,1.299999237060547-2.5,2.799999237060547-3.5,4.599998474121094-1,1.700000762939453-1.799999952316284,3.5-2.299999952316284,5.299999237060547-.600000023841858,1.799999237060547-1,3.700000762939453-1.399999976158142,5.700000762939453-.400000005960464,2-.600000023841858,3.900001525878906-.699999988079071,5.699996948242188-.099996648728848,1.800003051757812-.199996650218964,3.500007629394531-.199996650218964,5.300003051757812,0,4.699996948242188,1.5,8.5,4.400000095367432,11.199996948242188,2.900000095367432,2.800003051757812,6.700000286102295,4.199996948242188,11.399999141693115,4.199996948242188h43.099998474121094c4.700000762939453,0,8.499996185302734-1.400001525878906,11.399997711181641-4.199996948242188,2.900001525878906-2.800003051757812,4.400001525878906-6.599998474121094,4.400001525878906-11.199996948242188.100006103515625-1.699996948242188,0-3.5-.099998474121094-5.199996948242188Z" style="fill:#b8babd; stroke-width:0px;"/></svg>