<?xml version="1.0" encoding="UTF-8"?>
<svg id="OBJECTS" xmlns="http://www.w3.org/2000/svg" width="135.40087" height="126.39122" viewBox="0 0 135.40087 126.39122">
  <g>
    <path d="m4.14491,37.07763c-3.8438,2.5562-6.0967,7.9692-1.8496,14.4414,4.2466,6.4717,64.9224,50.1582,67.147,51.3711,2.2246,1.2134,4.45111,1.4155,10.1113-2.8315,5.6641-4.2476,52.9824-37.4288,54.2031-38.4273,1.9434-1.5874,2.42771-5.4609,0-7.2812,0,0-57.3242,40.0449-59.2012,41.6635-1.8769,1.6182-4.7968-1.0112-4.248-4.4492.5508-3.4385.9551-3.8432,8.2363-9.1015,7.2813-5.2588,48.5625-34.4644,50.43561-35.7554,2.12109-1.4624,2.17179-4.0464-1.30281-6.3316-4.83-3.1767-57.0254-37.8286-58.7719-39.0415-1.7505-1.2133-4.1734-2.3169-7.8135.1104-3.6406,2.4267-49.88379,30.936-56.9463,35.6328Z" style="fill: #6269f9; stroke-width: 0px;"/>
    <path d="m69.44231,107.15183c-1.46-.7969-28.0821-19.8769-47.419-34.7334v30.9751c-.0156,22.6109,68.2295,34.6919,90.8389,6.896v-29.605c-13.8887,9.7959-30.13479,21.2559-33.3086,23.6353-5.66019,4.2471-7.8867,4.0449-10.1113,2.832Z" style="fill: #6269f9; stroke-width: 0px;"/>
  </g>
  <path d="m98.3212,73.18893s10.1465,4.7618,10.8691,23.9253l-4.916-1.2651-3.9336,7.7983c-1.6641-20.9839-10.7246-24.0263-10.7246-24.0263l8.7051-6.4322Z" style="fill: #bfbae8; stroke-width: 0px;"/>
</svg>