<?xml version="1.0" standalone="no"?>
<!DOCTYPE svg PUBLIC "-//W3C//DTD SVG 1.1//EN" "http://www.w3.org/Graphics/SVG/1.1/DTD/svg11.dtd" >
<svg xmlns="http://www.w3.org/2000/svg">
<metadata>Generated by IcoMoon</metadata>
<defs>
<font id="RawfinIcons" horiz-adv-x="1024">
<font-face units-per-em="1024" ascent="960" descent="-64" />
<missing-glyph horiz-adv-x="1024" />
<glyph unicode="&#x20;" horiz-adv-x="512" d="" />
<glyph unicode="&#xe900;" glyph-name="dashboard" d="M468.8 885.6v-192c0-40.8-33.6-74.4-74.4-74.4h-320c-40.8 0-74.4 33.6-74.4 74.4v192c0 40.8 33.6 74.4 74.4 74.4h320c41.2 0 74.4-33.6 74.4-74.4zM394.4 533.2h-320c-40.8 0-74.4-33.6-74.4-74.4v-448.4c0-40.8 33.6-74.4 74.4-74.4h320c40.8 0 74.4 33.6 74.4 74.4v448.4c0 40.8-33.2 74.4-74.4 74.4zM1024 202.4v-192c0-40.8-33.6-74.4-74.4-74.4h-320c-40.8 0-74.4 33.6-74.4 74.4v192c0 40.8 33.6 74.4 74.4 74.4h320c40.8 0.8 74.4-32.4 74.4-74.4zM949.6 960h-320c-40.8 0-74.4-33.6-74.4-74.4v-448.4c0-40.8 33.6-74.4 74.4-74.4h320c40.8 0 74.4 33.6 74.4 74.4v448.4c0 40.8-33.6 74.4-74.4 74.4z" />
<glyph unicode="&#xe901;" glyph-name="delete" horiz-adv-x="844" d="M780.8 830.8h-206.4c-12 74.4-76.4 129.2-152 129.2s-139.6-54.8-152-129.2h-206.8c-36.8-2-65.2-33.6-63.6-70.8v-78c0-6.8 2.8-12.8 7.2-17.6s11.2-7.2 17.6-7.2h794.4c6.8 0 12.8 2.8 17.6 7.2 4.8 4.8 7.2 11.2 7.2 17.6v78c2.4 37.2-26.4 68.8-63.2 70.8v0zM422.4 910c48 0 89.6-32.8 100.8-79.2h-202c11.6 46.4 53.2 79.2 101.2 79.2v0zM76.4 588.8v-543.2c0-60.4 50.4-109.6 112.8-109.6h466c62.4 0 112.8 49.2 112.8 109.6v543.2h-691.6zM305.2 479.6c32.4 0 58.4-27.6 58.4-62v-310.4c0-34.4-26-62-58.4-62s-58.4 27.6-58.4 62v310.4c0 34.4 26 62 58.4 62zM539.2 479.6c32.4 0 58.4-27.6 58.4-62v-310.4c0-34.4-26-62-58.4-62s-58.4 27.6-58.4 62v310.4c0 34.4 26 62 58.4 62z" />
<glyph unicode="&#xe902;" glyph-name="delete-2" horiz-adv-x="922" d="M358.4 499.2c28.4 0 51.2-22.8 51.2-51.2v-256c0-28.4-22.8-51.2-51.2-51.2s-51.2 22.8-51.2 51.2v256c0 28.4 22.8 51.2 51.2 51.2zM563.2 499.2c28.4 0 51.2-22.8 51.2-51.2v-256c0-28.4-22.8-51.2-51.2-51.2s-51.2 22.8-51.2 51.2v256c0 28.4 22.8 51.2 51.2 51.2zM0 704c0 28.4 22.8 51.2 51.2 51.2h819.2c28.4 0 51.2-22.8 51.2-51.2s-22.8-51.2-51.2-51.2h-819.2c-28.4 0-51.2 22.8-51.2 51.2zM153.6 601.6c28.4 0 51.2-22.8 51.2-51.2v-409.6c0-56.4 46-102.4 102.4-102.4h307.2c56.4 0 102.4 46 102.4 102.4v409.6c0 28.4 22.8 51.2 51.2 51.2s51.2-22.8 51.2-51.2v-409.6c0-113.2-91.6-204.8-204.8-204.8h-307.2c-113.2 0-204.8 91.6-204.8 204.8v409.6c0 28.4 22.8 51.2 51.2 51.2zM256 806.4c0 84.8 68.8 153.6 153.6 153.6h102.4c84.8 0 153.6-68.8 153.6-153.6v-102.4c0-28.4-22.8-51.2-51.2-51.2h-307.2c-28.4 0-51.2 22.8-51.2 51.2v102.4zM409.6 857.6c-28.4 0-51.2-22.8-51.2-51.2v-51.2h204.8v51.2c0 28.4-22.8 51.2-51.2 51.2h-102.4z" />
<glyph unicode="&#xe903;" glyph-name="edit" d="M920.4 758c-8 56.4-24.8 101.6-62.4 137.2-37.2 35.2-84.4 50.8-143.2 58.4-56.4 6.4-129.6 6.4-222.8 6.4h-55.6c-92.8 0-166 0-223.2-7.2-58.4-7.6-105.6-23.2-142.8-58.4-37.6-35.6-54.8-80.8-62.8-137.2-7.6-54.4-7.6-123.6-7.6-211.2v-196c0-87.6 0-156.8 7.6-211.2 8-56.4 24.8-101.6 62.4-137.2 37.2-35.2 84.4-50.8 143.2-58.4 57.2-7.2 130.4-7.2 223.2-7.2h30.8c18.8 0 28.4 0 32.4 4.8 4.4 4.8 3.2 16 0.8 38.8-1.2 10-0.8 18.8-0.4 25.2 0.8 11.2 3.2 25.6 4.8 34 2.8 14.4 15.2 79.6 17.6 88.4 7.6 30 22.4 70.8 57.2 106l162.4 162.4c11.2 11.2 28.4 28.4 49.2 40.8 30.8 18 65.6 25.6 100 23.6 18.4-1.2 28-1.6 32.4 2.8s4.4 12.4 4.4 28.8v55.2c0 87.6 0 156.8-7.6 211.2zM655.2 400.4h-381.2c-26.4 0-47.6 21.2-47.6 47.6s21.2 47.6 47.6 47.6h381.2c26.4 0 47.6-21.2 47.6-47.6s-21.2-47.6-47.6-47.6zM655.2 638.4h-381.2c-26.4 0-47.6 21.6-47.6 47.6 0 26.4 21.2 47.6 47.6 47.6h381.2c26.4 0 47.6-21.2 47.6-47.6s-21.2-47.6-47.6-47.6zM827.6 374c33.6 19.2 74.8 19.2 108 0 12.4-7.2 26.4-21.2 39.6-34.4s27.2-27.2 34.4-39.6c19.2-33.6 19.2-74.8 0-108-7.2-12.4-18.4-23.6-31.6-36.8l-160.4-160.4c-22-22-48.8-32.4-72.8-38.8-12-3.2-68-13.2-68-13.2s-29.2-6.4-41.2-7.2c-13.2-0.8-32.4 0.4-48 16s-16.8 34.8-16 48c0.8 12 7.2 41.2 7.2 41.2s10 56 13.2 68c6 24 16.4 50.8 38.8 72.8l160.4 160.4c12.8 13.6 24 24.8 36.4 32z" />
<glyph unicode="&#xe904;" glyph-name="edit-2" horiz-adv-x="1023" d="M608.8 34.4l-73.2-4.8h-7.2c-27.2-0.4-53.2 10.8-71.6 30.8s-27.2 46.8-25.2 74l4.8 73.2c0.4 4 0.8 8.4 1.6 12.4h-252c-17.6 0-32 14.4-32 32s14.4 32 32 32h276c6.8 10.4 14.4 20 22.8 28.4l136 136h-434.8c-17.6 0-32 14.4-32 32s14.4 32 32 32h498.4l146 146c15.6 15.6 36.4 25.2 58.4 27.2v214.4c0 16-6.4 31.2-17.6 42.4s-26.4 17.6-42.4 17.6h-768c-16 0.4-31.6-6-43.2-17.2-11.2-11.6-17.6-26.8-17.6-42.8v-904c0-16 6.4-31.6 18-42.8s26.8-17.6 42.8-17.2h768c16 0 31.2 6.4 42.4 17.6s17.6 26.4 17.6 42.4v262l-176-176c-27.6-27.6-64.4-44.8-104-47.6v0zM186 740.4h518c17.6 0 32-14.4 32-32s-14.4-32-32-32h-518c-17.6 0-32 14.4-32 32s14.4 32 32 32zM1017.2 510.8c9.2-10.8 8-27.6-2.8-36.8l-346-346c-17.2-17.2-39.6-28-64-30l-73.2-4.8c-10-1.2-20 2.4-26.8 9.6-7.2 7.2-10.4 16.8-9.6 26.8l4.8 73.2c2 24.4 12.8 46.8 30 64l346 345.6c9.6 10.4 25.6 11.6 36.4 2.8l105.2-104.4z" />
<glyph unicode="&#xe905;" glyph-name="github" d="M512 948c-282.8 0-512-229.2-512-512 0-226.4 146.8-418 350-485.6 25.6-4.8 34.8 11.2 34.8 24.8 0 12-0.4 44.4-0.8 87.2-142-31.2-172 68-172 68-23.2 59.2-56.8 74.8-56.8 74.8-46.4 31.6 3.6 31.2 3.6 31.2 51.6-3.6 78.4-52.8 78.4-52.8 45.6-78.4 120-55.6 149.2-42.4 4.8 33.2 17.6 55.6 32.4 68.4-113.6 12.8-233.2 56.8-233.2 253.2 0 56 20 101.6 52.8 137.2-5.6 12.8-23.2 64.8 4.4 135.6 0 0 42.8 13.6 140.8-52.4 40.8 11.2 84.4 17.2 128 17.2 43.6-0.4 87.2-6 128-17.2 97.2 66.4 140 52.4 140 52.4 27.6-70.4 10.4-122.4 5.2-135.6 32.8-36 52.4-81.6 52.4-137.2 0-196.8-119.6-240-233.6-252.4 18-15.2 34.4-46.8 34.4-94.8 0-68.4-0.8-123.6-0.8-140.4 0-13.6 8.8-29.6 35.2-24.4 205.2 67.2 351.6 259.2 351.6 485.2 0 282.8-229.2 512-512 512z" />
<glyph unicode="&#xe906;" glyph-name="image" d="M128 858c-70.4 0-128-57.6-128-128v-563.2c0-70.8 57.6-128.8 128-128.8h768c70 0 128 57.6 128 128v564c0 70-56.4 128-128 128h-768zM231.2 756c70 0 128-57.6 128-128s-57.6-128-128-128-128 57.6-128 128c-1.2 70 56.8 128 128 128zM614.8 550.8c7.2 0 14.8-3.6 19.6-10l282.8-358.8c6-7.2 7.2-18.4 2.4-27.2-3.6-8.8-13.6-14.8-23.2-14.8h-768.4c-10 0-18.4 6-23.2 14.8-3.6 8.8-2.4 19.6 2.4 27.2l205.2 255.6c4.8 6 12.4 10 19.6 10s14.8-3.6 19.6-10l82.4-103.2 160 205.2c6 7.2 13.2 11.2 20.8 11.2v0z" />
<glyph unicode="&#xe907;" glyph-name="image-2" d="M0 140.8l266.4 237.6c14.8 10.8 32.8 10.8 47.6 0l157.2-135.2c44-36.8 109.6-33.2 150 7.2l120.8 120.8c7.2 7.2 14.8 10.8 25.6 10.8s18.4-3.6 25.6-10.8l230.4-230.4v-95.2c0-62-47.6-109.6-109.6-109.6h-804.4c-62 0-109.6 47.6-109.6 109.6v95.2zM0 236v614.4c0 62 47.6 109.6 109.6 109.6h804.8c62 0 109.6-47.6 110-109.6v-606.8l-179.2 179.2c-18.4 22-47.6 32.8-76.8 32.8s-54.8-10.8-76.8-32.8l-120.8-120.8c-14.8-14.4-36.4-14.4-51.2-3.6l-157.2 135.2c-40.4 36.4-102.4 36.4-142.8 0l-219.6-197.6zM310.8 850.4c-91.6 0-164.4-73.2-164.4-164.4s73.2-164.4 164.4-164.4 164.4 73.2 164.4 164.4-72.8 164.4-164.4 164.4z" />
<glyph unicode="&#xe908;" glyph-name="like" d="M264.4 594c18-20 28-46 28-73.2v-365.6c-0.4-60.4-49.2-109.6-109.6-109.6h-73.2c-60.4 0-109.6 49.2-109.6 109.6v365.6c0 60.4 49.2 109.6 109.6 109.6h73.2c31.2 0 60.8-13.2 81.6-36.4zM1003.2 548.4c-20.4 28.8-53.6 46-88.8 45.6h-207.2l38.8 135.6c12.8 45.6-10 93.6-53.2 112.4s-93.6 3.2-118.4-36.8c-24.8-40.8-54.8-78.4-88.4-112-36.4-36.4-77.2-68.4-121.6-94.4-4.4-2.4-9.2-3.6-14.4-4 10-23.2 15.6-48.4 15.2-74v-365.6c0-25.2-5.2-50-14.8-73.2h413.6c38.4 0 76 12 106.8 34.4 31.2 22.4 54.4 54 66.4 90.8l80.8 242.4c11.6 33.2 6 70.4-14.8 98.8v0z" />
<glyph unicode="&#xe909;" glyph-name="logout" horiz-adv-x="948" d="M796.4 758.4c-32.4 30-82.4 28-112.4-4.4-30-32-28-82.4 4.4-112.4 64.4-59.6 101.2-144 101.2-231.2 0-174-141.2-315.2-315.2-315.2-173.6 0-315.2 141.2-315.2 315.2 0 90 38.4 175.6 105.6 235.6 32.8 29.2 35.6 79.6 6.4 112.4s-79.6 35.6-112.4 6.4c-100.8-90.4-158.8-219.2-158.8-354.4 0-261.6 212.8-474.4 474.4-474.4s474.4 212.8 474.4 474.4c-0.4 131.6-55.6 258.4-152.4 348zM461.2 387.2c35.2 0 63.6 28.4 63.6 63.6v445.6c0 35.2-28.4 63.6-63.6 63.6s-63.6-28.4-63.6-63.6v-445.2c0-35.2 28.4-64 63.6-64z" />
<glyph unicode="&#xe90a;" glyph-name="notification" horiz-adv-x="947" d="M838.8 363.6c-15.2 18.4-24 41.6-24 65.6v121.2c0 84.8-31.6 166-88.4 228.8s-134.8 102-218.8 110.8v36c0 18.8-15.2 34-34 34s-34-15.2-34-34v-36c-84-8.4-162.4-48-218.8-110.8-57.2-62.8-88.8-144-88.8-228.8v-121.2c0-24-8.4-47.2-24-65.6l-92-110.8c-17.2-20.4-20.8-48.8-9.6-72.8s35.6-39.2 62-39.2h809.6c26.4 0 50.8 15.2 62 39.2s7.6 52.4-9.6 72.8l-91.6 110.8zM473.2-64c39.2 0 77.6 13.6 108 38.4s51.6 59.6 59.2 98h-334.4c8-38.4 28.8-73.2 59.2-98 30.8-24.8 68.8-38.4 108-38.4z" />
<glyph unicode="&#xe90b;" glyph-name="notification-on" d="M34 516.4c-18.8 0-34 15.2-34 34-0.4 137.6 54.8 269.6 153.6 365.6 13.6 13.2 35.2 13.2 48.4-0.4 6.4-6.4 9.6-15.2 9.6-24 0-9.2-4-17.6-10.4-24-85.2-83.6-133.2-198-132.8-317.2 0-18.8-15.6-34-34.4-34v0zM870.4 916c-13.6 13.2-35.2 13.2-48.4-0.4-6.4-6.4-9.6-15.2-9.6-24 0-9.2 4-17.6 10.4-24 85.2-83.6 133.2-198 132.8-317.2 0-18.8 15.2-34 34-34s34 15.2 34 34c0.8 137.6-54.8 269.6-153.2 365.6v0zM877.2 363.6c-15.2 18.4-24 41.6-24 65.6v121.2c0 84.8-31.6 166-88.4 228.8s-134.8 102-218.8 110.8v36c0 18.8-15.2 34-34 34s-34-15.2-34-34v-36c-84-8.4-162.4-48-218.8-110.8-56.8-62.8-88-144.4-88.4-228.8v-121.2c0-24-8.4-47.2-24-65.6l-92-110.8c-17.2-20.4-20.8-48.8-9.6-72.8s35.6-39.2 62-39.2h809.6c26.4 0 50.8 15.2 62 39.2s7.6 52.4-9.6 72.8l-92 110.8zM512-64c39.2 0 77.6 13.6 108 38.4s51.6 59.6 59.2 98h-334.4c8-38.4 28.8-73.2 59.2-98s68.8-38.4 108-38.4z" />
<glyph unicode="&#xe90c;" glyph-name="post" horiz-adv-x="929" d="M921.005 757.333c-8.006 56.226-24.9 101.572-62.535 137.116-37.345 35.271-84.511 50.859-143.041 58.291-57.182 7.26-130.357 7.26-223.275 7.26h-55.563c-92.915 0-166.092 0.001-223.273-7.26-58.534-7.432-105.696-23.020-143.043-58.291-37.635-35.544-54.53-80.89-62.534-137.116-7.743-54.395-7.743-123.842-7.742-211.252v-196.161c-0.001-87.412-0.001-156.858 7.742-211.254 8.004-56.225 24.899-101.571 62.534-137.116 37.347-35.269 84.509-50.857 143.043-58.292 57.18-7.259 130.358-7.259 223.273-7.259h55.563c92.918 0 166.093 0 223.275 7.259 58.53 7.435 105.696 23.019 143.041 58.292 37.636 35.545 54.529 80.891 62.535 137.116 7.74 54.396 7.74 123.842 7.74 211.254v196.161c0 87.41 0 156.857-7.74 211.252zM464.372 162.233h-190.512c-26.304 0-47.628 21.323-47.628 47.628s21.324 47.628 47.628 47.628h190.512c26.305 0 47.628-21.323 47.628-47.628s-21.323-47.628-47.628-47.628zM654.884 400.372h-381.023c-26.304 0-47.628 21.323-47.628 47.628s21.324 47.628 47.628 47.628h381.023c26.305 0 47.628-21.323 47.628-47.628s-21.323-47.628-47.628-47.628zM654.884 638.512h-381.023c-26.304 0-47.628 21.324-47.628 47.628s21.324 47.628 47.628 47.628h381.023c26.305 0 47.628-21.324 47.628-47.628s-21.323-47.628-47.628-47.628z" />
<glyph unicode="&#xe90d;" glyph-name="post-pen" d="M512 874h-298.8c-117.6 0-213.2-95.6-213.2-213.2v-426.8c0-118 95.6-213.2 213.2-213.2h298.8c118 0 213.2 95.6 213.2 213.2v426.8c0 117.6-95.2 213.2-213.2 213.2zM192 724.8h170.8c23.6 0 42.4-19.2 42.4-42.8s-19.2-42.8-42.4-42.8h-170.8c-23.6 0-42.8 19.2-42.8 42.8s19.2 42.8 42.8 42.8zM490.8 212.8h-298.8c-23.6 0-42.8 19.2-42.8 42.8s19.2 42.8 42.8 42.8h298.8c23.6 0 42.8-19.2 42.8-42.8-0.4-24-19.2-42.8-42.8-42.8zM490.8 426h-298.8c-23.6 0-42.8 19.2-42.8 42.8s19.2 42.8 42.8 42.8h298.8c23.6 0 42.8-19.2 42.8-42.8-0.4-23.6-19.2-42.8-42.8-42.8zM917.2 788.8c-58.8 0-106.8-47.6-106.8-106.8v-42.8h213.6v42.8c0 58.8-47.6 106.8-106.8 106.8zM810.8 170c0-5.6 2-11.2 6.4-14.8l85.2-85.2c4-4.4 9.2-6.4 14.8-6.4s11.2 2 14.8 6.4l85.2 85.2c4.4 4 6.4 9.2 6.4 14.8v426.8h-213.2v-426.8z" />
<glyph unicode="&#xe90e;" glyph-name="printer" d="M870.4 704h-51.2v256h-614.4v-256h-51.2c-84.8 0-153.6-68.8-153.6-153.6v-358.4c0-56.4 46-102.4 102.4-102.4h102.4v-153.6h614.4v153.6h102.4c56.4 0 102.4 46 102.4 102.4v358.4c0 84.8-68.8 153.6-153.6 153.6zM307.2 857.6h409.6v-153.6h-409.6v153.6zM307.2 38.4v204.8h409.6v-204.8h-409.6zM870.4 448h-204.8v102.4h204.8v-102.4z" />
<glyph unicode="&#xe90f;" glyph-name="printer-2" d="M182.8 411.6c-22 0-36.4-14.8-36.4-36.4v-329.2c0-62 47.6-109.6 109.6-109.6 128 0 384 0 512 0 62 0 109.6 47.6 109.6 109.6v329.2c0 22-14.8 36.4-36.4 36.4h-658.4zM329.2 82.4h365.6c22 0 36.4 14.8 36.4 36.4s-14.8 36.4-36.4 36.4h-365.6c-22 0-36.4-14.8-36.4-36.4s14.4-36.4 36.4-36.4zM109.6 192v219.6c0 40.4 32.8 73.2 73.2 73.2h658.4c40.4 0 73.2-32.8 73.2-73.2v-219.6h36.4c40.4 0 73.2 32.8 73.2 73.2 0 73.2 0 234 0 329.2 0 62-47.6 109.6-109.6 109.6h-804.8c-62 0-109.6-47.6-109.6-109.6v-329.2c0-40.4 32.8-73.2 73.2-73.2h36.4zM329.2 228.4h365.6c22 0 36.4 14.8 36.4 36.4s-14.8 36.4-36.4 36.4h-365.6c-22 0-36.4-14.8-36.4-36.4s14.4-36.4 36.4-36.4zM804.4 557.6h73.2c22 0 36.4 14.8 36.4 36.4s-14.8 36.4-36.4 36.4h-73.2c-22 0-36.4-14.8-36.4-36.4s14.8-36.4 36.4-36.4zM146.4 740.4h731.6v110c0 29.2-10.8 58.4-32.8 76.8-18.8 22-48 32.8-77.2 32.8-128 0-384 0-512 0-29.2 0-58.4-10.8-76.8-32.8-22-18.4-32.8-47.6-32.8-76.8v-110z" />
<glyph unicode="&#xe910;" glyph-name="refresh" horiz-adv-x="1004" d="M982.4 333.6l-147.6 1.6c0 0 0 0-0.4 0-8.8 0-17.2-5.2-20.8-13.6-53.6-127.2-182-208-319.6-200.4-164.4 8.8-297.6 139.2-308.8 303.2-6.4 92 24.4 179.2 87.2 246.4 62 66.4 149.2 104.4 239.2 104.4 63.2 0 123.6-17.6 176.4-52l-62.4-62.4c-14.8-14.8-18.8-36.4-11.2-55.6s26.4-31.6 47.2-31.6h272c28.4 0 51.2 22.8 51.2 51.2v272c0 20.8-12.4 39.2-31.6 47.2s-41.2 3.6-55.6-11.2l-76.8-76.8c-102.8 78-229.2 114-358.8 101.6-251.2-24-449.6-232.8-461.6-485.6-6.4-141.2 43.6-275.2 141.2-377.6s229.6-158.4 370.4-158.4c226.4 0 428.4 151.6 491.6 369.2 2 6.8 0.4 14-3.6 19.6s-10.8 8.8-17.6 8.8z" />
<glyph unicode="&#xe911;" glyph-name="reply" d="M512 960c-282.4 0-512-229.6-512-512 0-85.2 21.6-169.2 62.8-244.4l-60.8-201.6c-5.6-18-0.4-37.6 12.8-50.8 9.6-9.6 22.8-15.2 36-15.2 4.8 0 10 0.8 14.8 2l201.6 60.4c75.6-40.8 159.6-62.4 244.8-62.4 282.4 0 512 229.6 512 512s-229.6 512-512 512v0zM563.2 294.4h-256c-28.4 0-51.2 22.8-51.2 51.2s22.8 51.2 51.2 51.2h256c28.4 0 51.2-22.8 51.2-51.2s-22.8-51.2-51.2-51.2v0zM716.8 499.2h-409.6c-28.4 0-51.2 22.8-51.2 51.2s22.8 51.2 51.2 51.2h409.6c28.4 0 51.2-22.8 51.2-51.2s-22.8-51.2-51.2-51.2v0z" />
<glyph unicode="&#xe912;" glyph-name="search" d="M834.8 310.4c227.2 451.2-339.6 870-704 518.8-351.2-364.8 67.6-931.2 518.8-704l150.8-150.8c50.8-51.2 134-51.2 185.2 0 50.8 50.8 50.8 134 0 185.2l-150.8 150.8zM666 294c-307.2-283.2-728 138-444.8 444.8 86.8 89.6 228.4 116.8 342.8 68.4 203.2-80 260.8-361.2 102-513.2v0z" />
<glyph unicode="&#xe913;" glyph-name="share" d="M463.6 634.8v72.4c0 28.8-16.8 55.2-42.8 67.6s-56.8 8.4-79.2-9.6c-87.2-71.2-244.4-200-314.4-257.2-17.2-14-27.2-35.2-27.2-57.6s10-43.6 27.2-57.6c70-57.2 227.2-186 314.4-257.2 22.4-18.4 53.2-22 79.2-9.6s42.8 38.8 42.8 67.6v72c102.4 3.6 191.2-0.8 272-18.8 86.8-19.6 164-54.8 223.2-120 10.4-11.2 26.8-15.2 41.2-9.6s24 19.6 23.6 35.2c-1.2 212-90.8 325.6-249.2 398.8-84 38-188.8 74.8-310.8 83.6z" />
<glyph unicode="&#xe914;" glyph-name="student" horiz-adv-x="876" d="M876.4 45.6v-73.2c0-20-16.4-36.4-36.4-36.4h-803.6c-20 0-36.4 16.4-36.4 36.4v73.2c0 121.2 98 219.2 219.2 219.2h72.8c8 0 15.6-2.4 22-7.2l124-93.2 124 93.2c6.4 4.8 14 7.2 22 7.2h73.2c121.2 0 219.2-98.4 219.2-219.2zM182.8 556.8c0-141.2 114.4-255.6 255.6-255.6s255.6 114.4 255.6 255.6c-76-49.2-165.2-74.8-255.6-73.2-90.8-1.2-179.6 24-255.6 73.2zM62.4 776l120-34.4v-75.2c0-9.6 3.6-19.2 10.4-26 68.4-57.6 156-87.2 245.2-83.6 89.2-3.6 176.8 26 245.2 83.6 6.8 6.8 10.8 16.4 10.4 26v75.2l73.2 22v-243.2c0-20 16.4-36.4 36.4-36.4s36.4 16.4 36.4 36.4v292c0.4 2 0.4 4 0 6.4-2 14.4-12 26.4-26 30.4l-364.8 109.6c-6.8 2-14.4 2-21.2 0l-365.2-109.6c-20 0-36.4-16.4-36.4-36.4 0-20.4 16.4-36.8 36.4-36.8z" />
<glyph unicode="&#xe915;" glyph-name="student-2" horiz-adv-x="1012" d="M974.4 727.6c-18 13.6-43.2 27.6-72 43.2l-226.4 123.6c-36.4 20-66 36-91.6 47.2-26.8 11.6-51.6 18.4-78.4 18.4s-51.6-6.8-78-18.4c-25.6-10.8-55.2-27.2-91.6-47.2l-226.4-123.6c-28.8-16-54-29.6-72-43.2-18.8-14.4-36.8-34.4-38-64s15.2-50.4 33.2-66.4c16.8-15.2 40.8-30.8 68.8-49.2v0l27.6-14.8v-221.6c0-115.2 55.6-223.6 149.6-284.4l66-42.8c99.2-64.4 223.6-64.4 322.8 0l66 42.8c93.6 60.8 149.6 169.2 149.6 284.4v221.6l27.6 14.8c27.6 18.4 52 34 68.8 49.2 17.6 16 34 37.2 33.2 66.4-2 29.6-20 49.2-38.8 64zM682 106l-66-42.8c-68-44-152-44-220 0l-66 42.8c-65.2 42.4-106.4 120-106.4 205.6v50c83.6 20.8 179.6 33.2 282.4 33.2 103.2 0 198.8-12.4 282.4-33.2v-50c0-85.6-41.2-163.2-106.4-205.6z" />
<glyph unicode="&#xe916;" glyph-name="table" d="M870.4 960h-716.8c-87.2 0-153.6-66.4-153.6-153.6v-716.8c0-87.2 66.4-153.6 153.6-153.6h716.8c87.2 0 153.6 66.4 153.6 153.6v716.8c0 87.2-66.4 153.6-153.6 153.6zM101.2 806.4c0 31.2 20.8 52.4 52.4 52.4h153.6v-205.2h-206v152.8zM307.2 37.2h-153.6c-31.2 0-52.4 20.8-52.4 52.4v158.4h206v-210.8zM307.2 349.6v0h-206v202.4h206v-202.4zM922.8 552v-202.8h-210v202.8h210zM611.2 37.2h-202.8v210.8h202.8v-210.8zM611.2 349.6h-202.8v202.4h202.8v-202.4zM922.8 89.6c0-31.2-21.2-52.4-52.4-52.4h-158v210.8h210v-158.4z" />
<glyph unicode="&#xe917;" glyph-name="teacher" horiz-adv-x="978" d="M269.2 690.8c0-2 0.4-4 0.4-6.4 14-158.4 106.8-280.8 218.8-280.8 112.4 0 205.2 122.4 219.2 280.8 0.4 2 0.4 4 0.4 6.4 1.2 6.8 1.6 14 2 20.8 0.4 4.8 0.4 9.6 0.4 14.4 0 12-0.8 24-2.4 35.6-16 112.4-108 198.4-219.2 198.4s-203.2-86-219.6-198.4c-1.6-11.6-2.4-23.6-2.4-35.6 0-4.8 0-9.6 0.4-14.4 0.4-7.2 1.2-14 2-20.8zM700 433.2c-0.4 0-1.2 0-1.6 0.4-4.4 0.4-9.2 1.2-13.6 1.6 0-0.4 0-0.8 0-1.2 0-1.2-0.4-2.8-0.4-4-0.8-7.6-3.2-14.8-6.8-22-23.6-59.6-100.4-172.8-145.6-237.2l-9.2 133.6c13.2 6.8 24.4 18 31.6 30.8 5.2 9.2 8.4 19.6 8.4 30 0 0-33.6-14.8-68-14.8-2 0-4 0-6 0s-4 0-6 0c-34.4 0-68 14.8-68 14.8 0-10.4 3.2-20.8 8.4-30 7.2-12.8 18.8-24 32-30.8l-9.2-133.6c-45.2 64.4-122 177.2-145.6 236.8-3.6 7.2-5.6 14.4-6.8 22 0 1.2-0.4 2.8-0.4 4 0 0.4 0 0.8 0 1.2-4.4-0.4-9.2-0.8-13.6-1.6-0.4 0-1.2 0-1.6-0.4-157.2-21.2-278-156-278-319.2 0-178 144.4-177.6 322.8-177.6h332.4c178 0 322.8-0.4 322.8 177.6-0.4 163.2-121.2 298-278 319.6z" />
<glyph unicode="&#xe918;" glyph-name="teacher-2" d="M846 243.2c-32.8 9.6-81.6 30.4-109.6 47.2-20.4 12-42 8.4-59.6-5.2l-94-296.4-30.8 174c-0.4 2.8-1.6 5.2-3.2 7.6 4 1.6 6.8 6.4 6.8 12.4l12.4 78.4c0 7.2-4 13.2-9.2 13.2h-92.8c-5.2 0-9.2-6-9.2-13.2l12.4-78.4c0-6 3.2-10.8 6.8-12.4-1.2-2.4-2.4-4.8-3.2-7.6l-30.8-174-91.2 288c-18.4 18.4-42.4 25.6-64.4 12.4-26.8-16-75.2-35.6-108-44.8-103.2-29.2-178.4-66.4-178.4-171.2v-70.8c0-34 27.6-61.6 61.6-61.6h900.8c34 0 61.6 27.6 61.6 61.6v70.8c0 105.2-73.6 139.2-178 170zM746.4 566c-20-71.2-38.4-75.2-49.6-68-13.6-76.8-55.2-176-188.4-181.2-135.6 10.4-178.4 112-190.4 190-10.8 0.8-25.2 16-40.4 70.4-21.2 74.4 1.2 85.2 20.4 83.6-14 39.2-14.4 77.6-4.8 113.2 10 42 32.4 75.6 57.6 101.2 16 17.2 34.4 32 53.6 44 15.6 10.8 33.2 20.4 52 26.8v0 0c14.8 4.8 30.4 8.4 47.2 9.2 51.6 4.4 90.4-8.4 118.4-25.2 42-23.2 57.6-53.6 57.6-53.6s105.2-7.2 59.2-228v0c14-5.2 24-24.4 7.6-82.4z" />
<glyph unicode="&#xe919;" glyph-name="user" horiz-adv-x="855" d="M421.2 466.8c67.6 0 126.8 24 174 72s72 106.4 72 174-24 126.8-72 174-105.6 73.2-174 73.2c-67.6 0-127.2-24-175.2-72s-72-106.4-72-174 24-126.8 72-174c49.2-49.2 107.6-73.2 175.2-73.2zM853.6 171.6c-1.2 20.4-4.4 42.4-8 65.2-4.4 22.8-9.2 44.8-16 65.2s-16 41.2-26.4 60.8c-11.6 20.4-25.2 37.6-40 52.8-16 14.8-35.6 27.6-58.4 36.8s-46.8 13.6-74.4 13.6c-10.4 0-20.4-4.4-40-17.2-12.4-8-26.4-17.2-42.4-26.4-13.6-9.2-32-17.2-53.6-24s-44.8-10.4-66.4-10.4-44.8 3.6-66.4 10.4c-22.8 6.8-40 14.8-53.6 24-16 10.4-29.6 19.6-42.4 27.6-19.6 12.4-29.6 17.2-40 17.2-26.4 0-51.6-4.4-74.4-13.6s-42.4-20.4-58.4-36.8c-14.8-14.8-28.8-32-40-52.8-11.6-19.6-20.4-40-26.4-60.8-6.8-20.4-11.6-42.4-16-65.2s-6.8-44.8-8-65.2c-1.2-20.4-2.4-40-2.4-60.8 0-53.6 17.2-97.2 50.4-128 33.2-32 76.8-48 130.4-48h493.2c53.6 0 97.2 16 130.4 48s50.4 75.6 50.4 128c1.2 19.6 0 40.4-1.2 59.6z" />
<glyph unicode="&#xe91a;" glyph-name="user-image" d="M777.2 950.8c68.8-9.2 123.6-28.4 166-71.6 43.2-42.8 62.4-97.2 71.6-166 9.2-67.2 9.2-152.8 9.2-262.4v-5.6c0-109.2 0-195.2-9.2-262.4-9.6-68.4-28.8-123.2-71.6-166-42.8-43.2-97.2-62.4-166-71.6-67.2-9.2-152.8-9.2-262.4-9.2h-5.6c-109.2 0-195.2 0-262.4 9.2-68.4 9.6-123.2 28.8-166 71.6-43.2 42.8-62.4 97.2-71.6 166-9.2 67.2-9.2 152.8-9.2 262.4v5.6c0 109.6 0 195.6 9.2 262.4 9.2 68.8 28.4 123.6 71.2 166.4s97.6 62 166.4 71.2c66.8 9.2 152.8 9.2 262.4 9.2h5.6c109.6 0 195.6 0 262.4-9.2zM511.6 735.2c-89.6 0-162.4-72.8-162.4-162.4s72.8-162.4 162.4-162.4 162.4 72.8 162.4 162.4c0 89.6-72.8 162.4-162.4 162.4zM260 224c-14.4-14.8-13.6-38.8 1.2-52.8 7.2-6.8 16.4-10.4 26-10.4h449.6c9.2 0 18 3.2 25.2 10 15.2 14 16 37.6 2 52.8-132.8 144.8-373.2 137.2-504 0.4z" />
<glyph unicode="&#xe91b;" glyph-name="warning" horiz-adv-x="1025" d="M1005.986 193.801l-334.661 667.321c-65.651 131.703-252.197 131.703-318.249 0l-334.261-667.321c-58.446-118.893 27.622-257.801 158.924-257.801h669.323c131.703 0 217.37 138.909 158.924 257.801zM512.4 128.15c-34.827 0-62.048 27.622-62.048 62.048 0 34.827 27.622 62.048 62.048 62.048s62.048-27.622 62.048-62.048c0-34.827-27.221-62.048-62.048-62.048zM548.829 297.883h-73.257l-40.031 369.489h153.72l-40.432-369.489z" />
<glyph unicode="&#xe91c;" horiz-adv-x="1025" d="M401.113 694.192h239.387v-598.868h-239.387v598.868z" />
<glyph unicode="&#xe91d;" horiz-adv-x="1025" d="M1005.986 193.801l-334.661 667.321c-65.651 131.703-252.197 131.703-318.249 0l-334.261-667.321c-58.446-118.893 27.622-257.801 158.924-257.801h669.323c131.703 0 217.37 138.909 158.924 257.801zM512.4 128.15c-34.827 0-62.048 27.622-62.048 62.048 0 34.827 27.622 62.048 62.048 62.048s62.048-27.622 62.048-62.048c0-34.827-27.221-62.048-62.048-62.048zM548.829 297.883h-73.257l-40.031 369.489h153.72l-40.432-369.489z" />
</font>
</defs>
</svg>
